<?xml version="1.0" encoding="utf-8"?>
<!-- Generator: Adobe Illustrator 22.0.0, SVG Export Plug-In . SVG Version: 6.00 Build 0)  -->
<svg version="1.1" id="图层_1" xmlns="http://www.w3.org/2000/svg" xmlns:xlink="http://www.w3.org/1999/xlink" x="0px" y="0px"
	 viewBox="0 0 542.7 129.2" style="enable-background:new 0 0 542.7 129.2;" xml:space="preserve">
<style type="text/css">
	.st0{fill:#F0C514;}
	.st1{fill:#E84C3D;}
	.st2{fill:#34495E;}
	.st3{fill:#1AB99B;}
	.st4{fill:#333333;}
	.st5{font-family:'FZCQJW--GB1-0';}
	.st6{font-size:72px;}
</style>
<path class="st0" d="M64.6,0L54.5,17.5l10.1,5.8l3.5,2l6.1,3.5l6,3.5l4.6,2.7l-1.5-2.7l-2-3.5l-4.8-8.4l-1.7-3L64.6,0z M28.8,61.9
	l-1.5,2.7l-2,3.5l-4.8,8.4l-1.7,3L8.7,96.9h20.2V67.3V61.9z M110.5,79.4l-10.1,5.8l-3.5,2l-6.1,3.5l-6,3.5l-4.6,2.7h40.4L110.5,79.4
	z"/>
<path class="st1" d="M32.3,8.7v20.2h35l-6.1-3.5l-8.4-4.8l-3-1.7L32.3,8.7z M111.7,54.5l-5.8,10.1l-2,3.5l-3.5,6.1l-3.5,6l-2.7,4.6
	l2.7-1.5l3.5-2l28.8-16.7L111.7,54.5z M32.3,80.2v40.4l17.5-10.1L44,100.4l-2-3.5l-3.5-6.1l-3.5-6L32.3,80.2z"/>
<path class="st2" d="M8.7,32.3l10.1,17.5L28.8,44l3.5-2l6.1-3.5l6-3.5l4.6-2.7H28.8H8.7z M100.4,32.3v35l1.5-2.7l2-3.5l6.6-11.4
	l10.1-17.5H100.4z M44.4,94.2l1.5,2.7l2,3.5l16.7,28.8l10.1-17.5l-10.1-5.8l-3.5-2l-6.1-3.5l-6-3.5L44.4,94.2L44.4,94.2z"/>
<path class="st3" d="M96.9,8.7L79.4,18.7l5.8,10.1l2,3.5l3.5,6.1l3.5,6l2.7,4.6V28.8L96.9,8.7z M35,44.4l-2.7,1.5l-11.8,6.8l-3,1.7
	L0,64.6l17.5,10.1l5.8-10.1l2-3.5l3.5-6.1l3.5-6L35,44.4L35,44.4z M61.9,100.3l2.7,1.5l3.5,2l8.4,4.8l3,1.7l17.5,10.1v-20.2H67.3
	H61.9z"/>
<text transform="matrix(1 0 0 1 149 91.2202)" class="st4 st5 st6">维创设计</text>
</svg>
